<?xml version="1.0" standalone="no"?>
<!DOCTYPE svg PUBLIC "-//W3C//DTD SVG 20010904//EN"
 "http://www.w3.org/TR/2001/REC-SVG-20010904/DTD/svg10.dtd">
<svg version="1.0" xmlns="http://www.w3.org/2000/svg"
 width="300.000000pt" height="225.000000pt" viewBox="0 0 300.000000 225.000000"
 preserveAspectRatio="xMidYMid meet">
<metadata>
Created by potrace 1.10, written by Peter Selinger 2001-2011
</metadata>
<g transform="translate(0.000000,225.000000) scale(0.100000,-0.100000)"
fill="#000000" stroke="none">
<path d="M1330 1836 c-89 -23 -115 -32 -189 -71 -128 -68 -246 -194 -306 -331
-74 -166 -74 -374 -1 -553 60 -149 214 -313 378 -404 97 -54 180 -72 328 -72
120 1 143 4 211 27 405 142 589 579 404 963 -24 50 -56 105 -72 124 -42 52
-153 163 -193 193 -47 35 -162 92 -230 112 -75 23 -259 29 -330 12z m299 -31
c105 -25 213 -88 312 -183 184 -174 252 -317 253 -527 0 -112 -14 -181 -55
-273 -77 -171 -201 -286 -384 -356 -75 -28 -88 -30 -220 -30 -125 0 -148 3
-213 26 -41 15 -99 42 -129 60 -79 47 -225 188 -281 272 -248 371 -55 882 380
1007 80 22 248 25 337 4z"/>
<path d="M1310 1784 c-229 -62 -406 -237 -467 -465 -23 -85 -23 -243 0 -328
17 -64 73 -187 88 -197 5 -3 0 16 -11 41 -35 82 -50 160 -50 262 0 118 17 191
69 298 151 308 545 451 850 310 88 -41 70 -20 -21 24 -46 22 -110 48 -143 56
-75 19 -242 19 -315 -1z"/>
<path d="M1450 1659 c-323 -47 -554 -386 -475 -694 20 -78 67 -178 98 -209 13
-13 30 -38 37 -56 8 -19 26 -39 44 -47 17 -8 56 -30 86 -49 164 -103 402 -106
575 -5 169 98 273 269 283 466 7 147 -36 288 -118 385 l-30 35 35 -66 c103
-197 82 -429 -56 -619 -49 -68 -46 -33 4 42 138 205 125 478 -30 674 -52 64
-158 120 -270 139 -87 16 -103 16 -183 4z m171 -35 c243 -45 379 -214 379
-468 0 -127 -24 -202 -98 -315 -27 -41 -33 -57 -25 -70 17 -27 39 -24 73 11
l33 33 -20 -33 c-42 -71 -127 -143 -208 -176 l-39 -17 24 26 c29 31 19 31 -56
1 -87 -35 -199 -50 -284 -37 -69 11 -176 45 -194 62 -17 15 10 10 91 -17 71
-24 89 -26 193 -22 86 4 129 10 170 26 30 12 64 22 75 23 19 0 19 1 -2 11 -16
8 -37 5 -90 -13 -98 -33 -239 -32 -345 1 -42 13 -75 27 -72 32 3 4 40 8 83 8
99 0 124 17 141 92 11 55 22 68 57 68 26 0 34 -11 38 -53 3 -41 23 -84 44 -92
37 -15 131 -22 177 -14 58 11 85 37 77 77 -2 15 -6 36 -8 47 -1 11 -17 79 -35
150 -18 72 -34 141 -36 155 -2 14 -8 41 -14 60 -5 19 -19 78 -31 130 -58 259
-50 250 -220 250 -120 0 -121 0 -150 -29 -17 -17 -29 -40 -29 -55 0 -15 -4
-34 -9 -44 -5 -9 -15 -44 -22 -77 -6 -33 -22 -105 -35 -160 -13 -55 -25 -111
-28 -125 -3 -14 -17 -74 -31 -135 -45 -188 -45 -191 -20 -225 12 -16 25 -27
28 -23 4 3 7 1 7 -6 0 -7 -3 -11 -7 -9 -50 24 -63 33 -63 43 0 6 -16 30 -35
53 -51 58 -94 161 -107 251 -33 222 92 459 292 554 72 34 131 52 195 60 17 2
35 5 41 6 7 0 49 -6 95 -15z m100 -471 c47 -202 88 -380 92 -395 l7 -28 -114
0 c-129 0 -118 -9 -131 103 l-7 57 -68 0 -68 0 -5 -32 c-3 -18 -9 -54 -13 -80
l-6 -48 -115 0 c-88 0 -114 3 -110 13 2 6 43 181 91 387 48 206 89 380 90 385
2 6 55 9 137 8 l134 -2 86 -368z"/>
<path d="M1491 1333 c-1 -32 -27 -227 -36 -270 -5 -21 -2 -23 43 -23 l47 0
-18 143 c-20 148 -35 210 -36 150z"/>
</g>
</svg>
